GRF
version=1
nRows=18
nColumns=19
inDegrees=no
endheader
time	right_ground_force_vx	right_ground_force_vy	right_ground_force_vz	right_ground_force_px	right_ground_force_py	right_ground_force_pz	right_ground_torque_x	right_ground_torque_y	right_ground_torque_z	left_ground_force_vx	left_ground_force_vy	left_ground_force_vz	left_ground_force_px	left_ground_force_py	left_ground_force_pz	left_ground_torque_x	left_ground_torque_y	left_ground_torque_z
      2.71000000	      0.00000000	      0.00000000	     -0.00000000	     -0.09738601	      0.00000000	     -0.25813998	      0.00000000	      0.00000000	      0.00000000	     72.68712716	    381.31395784	      3.67067597	      0.44896493	      0.00000000	     -0.36434197	      0.00000000	     18.78239617	      0.00000000
      2.72000000	      0.00000000	      0.00000000	     -0.00000000	     -0.09738601	      0.00000000	     -0.25813998	      0.00000000	      0.00000000	      0.00000000	     77.40912425	    375.68264830	      3.85835587	      0.45001092	      0.00000000	     -0.36399710	      0.00000000	     19.71385009	      0.00000000
      2.73000000	      0.00000000	      0.00000000	     -0.00000000	     -0.09738601	      0.00000000	     -0.25813998	      0.00000000	      0.00000000	      0.00000000	     81.41618653	    365.86135365	      3.94669422	      0.45104848	      0.00000000	     -0.36383011	      0.00000000	     20.46690376	      0.00000000
      2.74000000	      0.00000000	      0.00000000	     -0.00000000	     -0.09738601	      0.00000000	     -0.25813998	      0.00000000	      0.00000000	      0.00000000	     84.31768087	    351.12635933	      3.98751433	      0.45203844	      0.00000000	     -0.36380427	      0.00000000	     20.96331074	      0.00000000
      2.75000000	      0.00000000	      0.00000000	     -0.00000000	     -0.09738601	      0.00000000	     -0.25813998	      0.00000000	      0.00000000	      0.00000000	     85.63298901	    330.86520592	      4.01843449	      0.45290604	      0.00000000	     -0.36385392	      0.00000000	     21.10135488	      0.00000000
      2.76000000	      0.00000000	      0.00000000	     -0.00000000	     -0.09738601	      0.00000000	     -0.25813998	      0.00000000	      0.00000000	      0.00000000	     84.84912249	    304.75900210	      4.05005815	      0.45352555	      0.00000000	     -0.36388029	      0.00000000	     20.76695755	      0.00000000
      2.77000000	      0.00000000	      0.00000000	     -0.00000000	     -0.09738601	      0.00000000	     -0.25813998	      0.00000000	      0.00000000	      0.00000000	     81.53493379	    273.00924469	      4.06112957	      0.45371663	      0.00000000	     -0.36375649	      0.00000000	     19.85962010	      0.00000000
      2.78000000	      0.00000000	      0.00000000	     -0.00000000	     -0.09738601	      0.00000000	     -0.25813998	      0.00000000	      0.00000000	      0.00000000	     75.49407038	    236.53670062	      4.00560409	      0.45326894	      0.00000000	     -0.36334864	      0.00000000	     18.32939509	      0.00000000
      2.79000000	      0.00000000	      0.00000000	     -0.00000000	     -0.09738601	      0.00000000	     -0.25813998	      0.00000000	     -0.00000000	      0.00000000	     66.90612565	    197.05170583	      3.83151114	      0.45200289	      0.00000000	     -0.36255282	      0.00000000	     16.21261337	      0.00000000
      2.80000000	      0.00000000	      0.00000000	     -0.00000000	     -0.09738601	      0.00000000	     -0.25813998	      0.00000000	     -0.00000000	      0.00000000	     56.38688784	    156.90998539	      3.50537791	      0.44985162	      0.00000000	     -0.36133664	      0.00000000	     13.64903493	      0.00000000
      2.81000000	      0.00000000	      0.00000000	     -0.00000000	     -0.09738601	      0.00000000	     -0.25813998	      0.00000000	     -0.00000000	      0.00000000	     44.91491545	    118.73834969	      3.03131782	      0.44692559	      0.00000000	     -0.35976536	      0.00000000	     10.86669463	      0.00000000
      2.82000000	      0.00000000	      0.00000000	     -0.00000000	     -0.09738601	      0.00000000	     -0.25813998	      0.00000000	     -0.00000000	      0.00000000	     33.62586143	     84.91885899	      2.45480037	      0.44351709	      0.00000000	     -0.35799459	      0.00000000	      8.13389834	      0.00000000
      2.83000000	      0.00000000	      0.00000000	     -0.00000000	     -0.09738601	      0.00000000	     -0.25813998	      0.00000000	     -0.00000000	      0.00000000	     23.54267092	     57.10341046	      1.84853564	      0.44002921	      0.00000000	     -0.35622726	      0.00000000	      5.69444524	      0.00000000
      2.84000000	      0.00000000	      0.00000000	     -0.00000000	     -0.09738601	      0.00000000	     -0.25813998	      0.00000000	     -0.00000000	      0.00000000	     15.34723964	     35.93638703	      1.28760818	      0.43685681	      0.00000000	     -0.35465230	      0.00000000	      3.71183620	      0.00000000
      2.85000000	      0.00000000	      0.00000000	     -0.00000000	     -0.09738601	      0.00000000	     -0.25813998	      0.00000000	     -0.00000000	      0.00000000	      9.27986493	     21.07658315	      0.82638004	      0.43427593	      0.00000000	     -0.35339322	      0.00000000	      2.24396104	      0.00000000
      2.86000000	      0.00000000	      0.00000000	     -0.00000000	     -0.09738601	      0.00000000	     -0.25813998	      0.00000000	     -0.00000000	      0.00000000	      5.18758513	     11.47747811	      0.48722572	      0.43239104	      0.00000000	     -0.35248764	      0.00000000	      1.25395159	      0.00000000
      2.87000000	      0.00000000	      0.00000000	     -0.00000000	     -0.09738601	      0.00000000	     -0.25813998	      0.00000000	     -0.00000000	      0.00000000	      2.67351020	      5.78440127	      0.26329877	      0.43115240	      0.00000000	     -0.35190060	      0.00000000	      0.64587896	      0.00000000
      2.88000000	      0.00000000	      0.00000000	     -0.00000000	     -0.09738601	      0.00000000	     -0.25813998	      0.00000000	     -0.00000000	      0.00000000	      1.26721892	      2.69032107	      0.13018636	      0.43041889	      0.00000000	     -0.35155720	      0.00000000	      0.30589985	      0.00000000
